<?xml version="1.0" encoding="UTF-8"?>
<svg version="1.1" viewBox="0 0 1024 1024" width="1300" height="1300" xmlns="http://www.w3.org/2000/svg">
<path transform="translate(421,118)" d="m0 0h2l-2 6-16 34-84 181-15 32-12 26-19 41-14 30-32 69-15 32-15 33-18 38-12 26-2 5-2-4-26-410v-8l16-8 34-16 33-15 34-16 33-15 34-16 33-15 34-16z" fill="#F42CAA"/>
<path transform="translate(601,118)" d="m0 0 9 3 36 17 24 11 39 18 67 31 106 49 3 2-1 23-25 395-2 4-15-33-18-38-12-26-13-28-19-41-15-32-15-33-18-38-15-33-18-38-12-26-19-41-14-30-26-56-19-41-8-17z" fill="#AD23F1"/>
<path transform="translate(357,700)" d="m0 0h310l4 8 16 39 17 41 2 5-1 4-24 14-25 14-24 14-27 15-24 14-25 14-24 14-18 10-6-1-25-14-24-14-25-14-24-14-27-15-24-14-25-14-15-9-1-4 38-92z" fill="#F2074F"/>
<path transform="translate(421,118)" d="m0 0h2l-2 6-16 34-84 181-13 28-8-4v-5l-11-3-3-1v-5l-5-1-7-3 1-8-5-1-35-12v-4l-16-6-4-2v-4l-17-6-1-4 1-2-5-1-23-9-6-1-5 1-13-6-4-1v9h-1l-2-31v-8l16-8 34-16 33-15 34-16 33-15 34-16 33-15 34-16z" fill="#F230CA"/>
<path transform="translate(511,329)" d="m0 0h2l15 36 32 78 19 46 32 78 3 8-1 1h-202l-1-2 15-36 18-44 19-46 18-44 19-46z" fill="#DB1CA6"/>
<path transform="translate(518,700)" d="m0 0h149l4 8 16 39 17 41 2 5-1 4-24 14-25 14-24 14-27 15-15 9-2-1-5-19-4-21-6-17-4-29-3-5-9-10-8-13-16-16-4-8v-2l-5-2-7-4 2-3-12-8-1-4z" fill="#E50367"/>
<path transform="translate(151,423)" d="m0 0 11 1 22 4 26 5h3l1-3 10 1 24 4 14 3 7-2 4 2-1 7-18 38-45 97-14 30-26 56-2 5-2-4-14-221z" fill="#F2258A"/>
<path transform="translate(518,700)" d="m0 0h149l4 8 16 39 17 41 2 5-1 4-24 14-25 14-6 3-6-22-4-19-6-16-5-20-7-19-3-7-4-6-6-16v-2h-91z" fill="#CE0688"/>
<path transform="translate(868,456)" d="m0 0h3v22l-12 189-2 4-15-33-18-38-8-18 1-7 4-14v-12l6-10 1-2-1-5 4 1-2-10 3-3v-8l5-1-1-12 10-18 8-9 9-11z" fill="#911AF1"/>
<path transform="translate(601,118)" d="m0 0 9 3 36 17 24 11 15 7-9 19-6 16-3 10 1 6 3 3-1 4-6 3 2 2-1 5-3 10 4 4-3 7h-2l-1 2-15-33-18-38-15-33-11-23z" fill="#CC2CF0"/>
<path transform="translate(570,701)" d="m0 0h39l5 12 4 9 4 6 7 21 4 13 3 12 5 13 6 27 3 10-1 5-14 8-2-1-7-22-9-27-3-12-8-18-12-17-11-16-4-9-8-11z" fill="#DB0477"/>
<path transform="translate(518,700)" d="m0 0h149l4 8 16 39 17 41 2 5-1 4-19 11h-2l-8-25-3-12-4-13-6-16-4-11-4-13-6-15v-2h-131z" fill="#C5099B"/>
<path transform="translate(178,617)" d="m0 0h9l2 1-1 7-15 33-6 13-2-4-2-31v-15l3-3z" fill="#F20A56"/>
</svg>
